<svg width="20" height="18" viewBox="0 0 20 18" fill="none" xmlns="http://www.w3.org/2000/svg">
<path fill-rule="evenodd" clip-rule="evenodd" d="M10.5301 3.1904C10.2211 2.89762 9.73319 2.9108 9.4404 3.21986C9.14762 3.52891 9.1608 4.01679 9.46985 4.30958L13.6072 8.22916H4.45833C4.03261 8.22916 3.6875 8.57427 3.6875 8.99999C3.6875 9.42571 4.03261 9.77083 4.45833 9.77083H13.6072L9.46985 13.6904C9.1608 13.9832 9.14762 14.4711 9.4404 14.7801C9.73319 15.0892 10.2211 15.1024 10.5301 14.8096L16.0693 9.56196C16.219 9.42135 16.3125 9.22159 16.3125 8.99999C16.3125 8.77839 16.219 8.57864 16.0693 8.43802L10.5301 3.1904Z" fill="white"/>
</svg>
