<svg width="25" height="25" viewBox="0 0 25 25" fill="none" xmlns="http://www.w3.org/2000/svg">
<path d="M19.8241 4.39453C18.2083 4.39453 16.8944 5.70845 16.8944 7.32422V22.0703C16.8944 22.8778 16.2371 23.5352 15.4296 23.5352H11.0351C10.2275 23.5352 9.57021 22.8778 9.57021 22.0703H10.3026C10.7075 22.0703 11.0351 21.7427 11.0351 21.3379V18.9573C14.0413 18.5782 15.1127 17.5225 15.2314 17.3952C15.3587 17.2596 15.4296 17.0805 15.4296 16.8945V6.17588C15.2478 5.99707 15.0283 5.86816 14.763 5.86079C14.4039 5.82646 14.0778 6.01743 13.8782 6.31782C13.4147 7.01304 12.6394 7.42788 11.804 7.42788C10.9686 7.42788 10.1933 7.01304 9.72978 6.31782C9.34214 5.7356 8.40654 5.7356 8.0189 6.31782C7.55542 7.01304 6.78008 7.42788 5.94468 7.42788C5.10928 7.42788 4.33394 7.01304 3.87046 6.31782C3.60293 5.91802 3.17739 5.82856 2.85908 5.87148C2.72471 5.8917 2.46069 5.97456 2.24609 6.22051V16.8945C2.24612 17.0805 2.31697 17.2596 2.44424 17.3952C2.56299 17.5225 3.63516 18.5797 6.64424 18.9581L6.64053 21.3365C6.64053 21.7444 6.97026 22.0703 7.37295 22.0703H8.10537C8.10537 23.6861 9.41929 25 11.0351 25H15.4296C17.0454 25 18.3593 23.6861 18.3593 22.0703V7.32422C18.3593 6.5167 19.0166 5.85938 19.8241 5.85938C20.6316 5.85938 21.289 6.5167 21.289 7.32422V24.2676C21.289 24.6724 21.6166 25 22.0214 25C22.4262 25 22.7538 24.6724 22.7538 24.2676V7.32422C22.7538 5.70845 21.4399 4.39453 19.8241 4.39453ZM7.37295 13.2324C6.96811 13.2324 6.64053 12.9048 6.64053 12.5C6.64053 12.0952 6.96811 11.7676 7.37295 11.7676H8.10537V11.0352C8.10537 10.6303 8.43296 10.3027 8.83779 10.3027C9.24263 10.3027 9.57021 10.6303 9.57021 11.0352V11.7676H10.3026C10.7075 11.7676 11.0351 12.0952 11.0351 12.5C11.0351 12.9048 10.7075 13.2324 10.3026 13.2324H9.57021V13.9648C9.57021 14.3697 9.24263 14.6973 8.83779 14.6973C8.43296 14.6973 8.10537 14.3697 8.10537 13.9648V13.2324H7.37295Z" fill="#BF0000"/>
<path d="M14.6973 1.46484H9.57031V0.732422C9.57031 0.327588 9.24272 0 8.83789 0C8.43306 0 8.10547 0.327588 8.10547 0.732422V1.46484H2.97852C2.57368 1.46484 2.24609 1.79243 2.24609 2.19727V4.54087C2.37705 4.49858 2.50171 4.44351 2.64233 4.42241C3.61221 4.28438 4.54849 4.69351 5.08921 5.50532C5.47686 6.08755 6.41245 6.08755 6.8001 5.50532C7.26362 4.81011 8.03896 4.39453 8.87436 4.39453C9.70977 4.39453 10.4851 4.81011 10.9486 5.50532C11.3362 6.08755 12.2718 6.08755 12.6595 5.50532C13.1387 4.78579 13.9498 4.36519 14.8045 4.39595C15.0162 4.40189 15.2263 4.43463 15.4297 4.49341V2.19727C15.4297 1.79243 15.1021 1.46484 14.6973 1.46484Z" fill="#BF0000"/>
</svg>
