<svg width="21" height="20" viewBox="0 0 21 20" fill="none" xmlns="http://www.w3.org/2000/svg">
<path fill-rule="evenodd" clip-rule="evenodd" d="M9.27418 2.27027C9.07664 2.39244 8.91705 2.56724 8.81331 2.77504L8.32582 3.75001H6.49997V3.33337C6.49997 3.22287 6.45608 3.11689 6.37794 3.03875C6.2998 2.96061 6.19381 2.91671 6.08331 2.91671C5.9728 2.91671 5.86682 2.96061 5.78868 3.03875C5.71054 3.11689 5.66664 3.22287 5.66664 3.33337V3.75001H3.58331C3.4728 3.75001 3.36682 3.79391 3.28868 3.87205C3.21054 3.95019 3.16664 4.05617 3.16664 4.16668V14.8942C3.1667 15.1291 3.23295 15.3592 3.35779 15.5582C3.48263 15.7571 3.66101 15.9169 3.87247 16.0192L6.43914 17.2608C7.62728 17.8357 8.93008 18.1343 10.25 18.1343C11.5699 18.1343 12.8727 17.8357 14.0608 17.2608L16.6275 16.0192C16.8389 15.9169 17.0173 15.7571 17.1422 15.5582C17.267 15.3592 17.3332 15.1291 17.3333 14.8942V4.16668C17.3333 4.05617 17.2894 3.95019 17.2113 3.87205C17.1331 3.79391 17.0271 3.75001 16.9166 3.75001H14.8333V3.33337C14.8333 3.22287 14.7894 3.11689 14.7113 3.03875C14.6331 2.96061 14.5271 2.91671 14.4166 2.91671C14.3061 2.91671 14.2002 2.96061 14.122 3.03875C14.0439 3.11689 14 3.22287 14 3.33337V3.75001H12.1741L11.6866 2.77504C11.5829 2.56724 11.4233 2.39244 11.2258 2.27027C11.0282 2.1481 10.8006 2.08338 10.5683 2.08337H9.93164C9.69938 2.08338 9.47171 2.1481 9.27418 2.27027ZM8.57849 4.58335L8.58331 4.58337H11.9166L11.9215 4.58335H14V5.00004C14 5.11055 14.0439 5.21653 14.122 5.29467C14.2002 5.37281 14.3061 5.41671 14.4166 5.41671C14.5271 5.41671 14.6331 5.37281 14.7113 5.29467C14.7894 5.21653 14.8333 5.11055 14.8333 5.00004V4.58335H16.5V14.8942C16.5 14.9724 16.4779 15.0491 16.4364 15.1155C16.3948 15.1818 16.3354 15.2351 16.265 15.2692L13.6983 16.5108C12.6232 17.0311 11.4443 17.3013 10.25 17.3013C9.05562 17.3013 7.87674 17.0311 6.80164 16.5108L4.23497 15.2692C4.16454 15.2351 4.10514 15.1818 4.06357 15.1155C4.02201 15.0491 3.99997 14.9724 3.99997 14.8942V4.58335H5.66664V5.00004C5.66664 5.11055 5.71054 5.21653 5.78868 5.29467C5.86682 5.37281 5.9728 5.41671 6.08331 5.41671C6.19381 5.41671 6.2998 5.37281 6.37794 5.29467C6.45608 5.21653 6.49997 5.11055 6.49997 5.00004V4.58335H8.57849ZM11.2425 3.75001L10.9408 3.14671C10.9062 3.07758 10.853 3.01946 10.7872 2.97884C10.7214 2.93822 10.6456 2.91671 10.5683 2.91671H9.93164C9.85433 2.91671 9.77854 2.93822 9.71275 2.97884C9.64697 3.01946 9.59378 3.07758 9.55914 3.14671L9.25749 3.75001H11.2425ZM8.70535 10.1221C8.62721 10.2002 8.58331 10.3062 8.58331 10.4167C8.58331 10.5272 8.62721 10.6332 8.70535 10.7113C8.78349 10.7895 8.88947 10.8334 8.99997 10.8334H9.83328V11.6667C9.83328 11.7772 9.87718 11.8832 9.95532 11.9613C10.0335 12.0394 10.1394 12.0833 10.2499 12.0833C10.3605 12.0833 10.4664 12.0394 10.5446 11.9613C10.6227 11.8832 10.6666 11.7772 10.6666 11.6667V10.8334H11.5C11.6105 10.8334 11.7165 10.7895 11.7946 10.7113C11.8727 10.6332 11.9166 10.5272 11.9166 10.4167C11.9166 10.3062 11.8727 10.2002 11.7946 10.1221C11.7165 10.0439 11.6105 10 11.5 10H10.6666V9.16668C10.6666 9.05617 10.6227 8.95019 10.5446 8.87205C10.4664 8.79391 10.3605 8.75001 10.2499 8.75001C10.1394 8.75001 10.0335 8.79391 9.95532 8.87205C9.87718 8.95019 9.83328 9.05617 9.83328 9.16668V10H8.99997C8.88947 10 8.78349 10.0439 8.70535 10.1221ZM4.95532 7.20541C4.87718 7.28355 4.83328 7.38953 4.83328 7.50004V13.3334C4.83328 13.4439 4.87718 13.5499 4.95532 13.628C5.03346 13.7061 5.13944 13.75 5.24995 13.75H15.2499C15.3605 13.75 15.4664 13.7061 15.5446 13.628C15.6227 13.5499 15.6666 13.4439 15.6666 13.3334V7.50004C15.6666 7.38953 15.6227 7.28355 15.5446 7.20541C15.4664 7.12727 15.3605 7.08337 15.2499 7.08337H5.24995C5.13944 7.08337 5.03346 7.12727 4.95532 7.20541ZM5.66661 12.9167V7.91671H14.8333V12.9167H5.66661Z" fill="#BF0000"/>
</svg>
