<svg width="20" height="20" viewBox="0 0 20 20" fill="none" xmlns="http://www.w3.org/2000/svg">
<path d="M13.6125 6.68751C12.325 5.05626 10.9875 3.37501 10.6875 1.82501C10.6188 1.46876 10.3 1.22501 9.93125 1.25001C9.61875 1.28126 9.3625 1.50626 9.3 1.81251C8.975 3.36251 7.6625 5.03751 6.3875 6.65626C4.86875 8.58125 3.4375 10.4 3.4375 12.1938C3.4375 15.8063 6.38125 18.75 10 18.75C13.6187 18.75 16.5625 15.8063 16.5625 12.1938C16.5625 10.4063 15.1313 8.60001 13.6125 6.68751ZM11.875 12.8125H10.625V14.0625C10.625 14.4063 10.3438 14.6875 10 14.6875C9.65625 14.6875 9.375 14.4063 9.375 14.0625V12.8125H8.125C7.78125 12.8125 7.5 12.5313 7.5 12.1875C7.5 11.8438 7.78125 11.5625 8.125 11.5625H9.375V10.3125C9.375 9.96876 9.65625 9.68751 10 9.68751C10.3438 9.68751 10.625 9.96876 10.625 10.3125V11.5625H11.875C12.2188 11.5625 12.5 11.8438 12.5 12.1875C12.5 12.5313 12.2188 12.8125 11.875 12.8125Z" fill="#BF0000"/>
</svg>
