<svg width="19" height="20" viewBox="0 0 19 20" fill="none" xmlns="http://www.w3.org/2000/svg">
<path d="M17.4166 13.895V16.27C17.4175 16.4905 17.3724 16.7087 17.284 16.9107C17.1957 17.1127 17.0662 17.2941 16.9037 17.4431C16.7412 17.5922 16.5494 17.7057 16.3406 17.7763C16.1317 17.8469 15.9104 17.8732 15.6908 17.8533C13.2547 17.5886 10.9147 16.7562 8.85872 15.4229C6.94591 14.2074 5.32419 12.5857 4.10872 10.6729C2.77078 8.60762 1.93816 6.2562 1.6783 3.80916C1.65852 3.59024 1.68454 3.3696 1.7547 3.16128C1.82486 2.95297 1.93763 2.76154 2.08582 2.5992C2.23402 2.43685 2.4144 2.30714 2.61547 2.21833C2.81654 2.12951 3.0339 2.08354 3.25372 2.08333H5.62872C6.01292 2.07955 6.38539 2.2156 6.6767 2.46613C6.96801 2.71665 7.15828 3.06456 7.21205 3.445C7.31229 4.20505 7.4982 4.95132 7.76622 5.66958C7.87273 5.95294 7.89578 6.26089 7.83264 6.55694C7.7695 6.853 7.62282 7.12475 7.40997 7.34L6.40455 8.34541C7.53153 10.3274 9.17258 11.9684 11.1546 13.0954L12.16 12.09C12.3752 11.8771 12.647 11.7305 12.943 11.6673C13.2391 11.6042 13.547 11.6272 13.8304 11.7337C14.5486 12.0018 15.2949 12.1877 16.055 12.2879C16.4395 12.3422 16.7907 12.5359 17.0418 12.8322C17.2929 13.1285 17.4263 13.5067 17.4166 13.895Z" stroke="white" stroke-width="2" stroke-linecap="round" stroke-linejoin="round"/>
</svg>
