<svg width="21" height="20" viewBox="0 0 21 20" fill="none" xmlns="http://www.w3.org/2000/svg">
<path d="M18.8333 15.8333C18.8333 16.2754 18.6577 16.6993 18.3452 17.0118C18.0326 17.3244 17.6087 17.5 17.1667 17.5H3.83334C3.39131 17.5 2.96739 17.3244 2.65483 17.0118C2.34227 16.6993 2.16667 16.2754 2.16667 15.8333V4.16667C2.16667 3.72464 2.34227 3.30072 2.65483 2.98816C2.96739 2.67559 3.39131 2.5 3.83334 2.5H8.00001L9.66667 5H17.1667C17.6087 5 18.0326 5.17559 18.3452 5.48816C18.6577 5.80072 18.8333 6.22464 18.8333 6.66667V15.8333Z" stroke="#BF0000" stroke-width="2" stroke-linecap="round" stroke-linejoin="round"/>
<path d="M10.5 9.16666V14.1667" stroke="#BF0000" stroke-width="2" stroke-linecap="round" stroke-linejoin="round"/>
<path d="M8 11.6667H13" stroke="#BF0000" stroke-width="2" stroke-linecap="round" stroke-linejoin="round"/>
</svg>
