<svg width="25" height="25" viewBox="0 0 25 25" fill="none" xmlns="http://www.w3.org/2000/svg">
<path d="M16.2773 12.4365L13.73 17.188L11.1694 11.2822L8.90674 15.377L7.33252 13.2983H2.54785C4.1001 15.8862 7.22705 18.7871 12.5239 22.1035C17.8213 18.7871 20.9482 15.8862 22.5005 13.2983H16.9443L16.2773 12.4365Z" fill="#BF0000"/>
<path d="M8.71436 12.6968L11.3276 7.96582L13.8696 13.8276L16.0532 9.75342L17.6626 11.8335H23.228C23.5737 10.9502 23.7329 10.105 23.7329 9.29248C23.7329 5.76025 20.8691 2.89648 17.3369 2.89648C15.4175 2.89648 13.6968 3.74316 12.5239 5.08203C11.3516 3.74316 9.63086 2.89648 7.71143 2.89648C4.1792 2.89648 1.31543 5.76025 1.31543 9.29248C1.31543 10.105 1.47461 10.9502 1.82031 11.8335H8.06055L8.71436 12.6968ZM0 11.8335V13.2983H2.54785C2.24756 12.7983 2.00684 12.3105 1.82031 11.8335H0ZM23.228 11.8335C23.0415 12.3105 22.8003 12.7983 22.5005 13.2983H25V11.8335H23.228Z" fill="#BF0000"/>
</svg>
