<svg width="25" height="25" viewBox="0 0 25 25" fill="none" xmlns="http://www.w3.org/2000/svg">
<path d="M12.4999 1.17188C10.3105 1.18571 8.21623 2.06873 6.67784 3.62667C5.13946 5.18461 4.28297 7.28986 4.2968 9.4793C4.2968 16.6535 12.4999 23.8281 12.4999 23.8281C12.4999 23.8281 20.703 16.6535 20.703 9.4793C20.7169 7.28986 19.8604 5.18461 18.322 3.62667C16.7836 2.06873 14.6894 1.18571 12.4999 1.17188ZM12.4999 16.4062C11.1093 16.4062 9.74985 15.9939 8.59357 15.2213C7.43728 14.4487 6.53607 13.3505 6.00389 12.0657C5.47171 10.7809 5.33247 9.3672 5.60377 8.00327C5.87508 6.63934 6.54474 5.38649 7.52808 4.40316C8.51141 3.41982 9.76426 2.75016 11.1282 2.47885C12.4921 2.20755 13.9059 2.34679 15.1907 2.87897C16.4755 3.41115 17.5736 4.31236 18.3462 5.46865C19.1188 6.62493 19.5312 7.98435 19.5312 9.375C19.529 11.2391 18.7875 13.0263 17.4694 14.3444C16.1512 15.6626 14.3641 16.4041 12.4999 16.4062Z" fill="#BF0000"/>
<path d="M12.5 3.125C11.2639 3.125 10.0555 3.49156 9.02769 4.17831C7.99988 4.86507 7.1988 5.84119 6.72576 6.98323C6.25271 8.12527 6.12894 9.38193 6.37009 10.5943C6.61125 11.8067 7.20651 12.9203 8.08058 13.7944C8.95466 14.6685 10.0683 15.2638 11.2807 15.5049C12.4931 15.7461 13.7497 15.6223 14.8918 15.1492C16.0338 14.6762 17.0099 13.8751 17.6967 12.8473C18.3834 11.8195 18.75 10.6111 18.75 9.375C18.748 7.718 18.0889 6.12943 16.9173 4.95775C15.7456 3.78608 14.157 3.12696 12.5 3.125ZM16.7969 10.5469H13.6719V13.6719H11.3281V10.5469H8.20313V8.20312H11.3281V5.07812H13.6719V8.20312H16.7969V10.5469Z" fill="#BF0000"/>
</svg>
