<svg width="20" height="20" viewBox="0 0 20 20" fill="none" xmlns="http://www.w3.org/2000/svg">
<path d="M17.125 9.60417C17.1277 10.6491 16.8836 11.6798 16.4125 12.6125C15.8539 13.7301 14.9952 14.6702 13.9326 15.3274C12.8699 15.9845 11.6453 16.3329 10.3958 16.3333C9.35094 16.3361 8.32017 16.0919 7.3875 15.6208L2.875 17.125L4.37917 12.6125C3.90807 11.6798 3.66394 10.6491 3.66667 9.60417C3.66715 8.35473 4.01548 7.1301 4.67265 6.06744C5.32982 5.00479 6.26987 4.14608 7.3875 3.58751C8.32017 3.11641 9.35094 2.87228 10.3958 2.87501H10.7917C12.4418 2.96604 14.0003 3.66253 15.1689 4.8311C16.3375 5.99968 17.034 7.55823 17.125 9.20834V9.60417Z" stroke="white" stroke-width="2" stroke-linecap="round" stroke-linejoin="round"/>
</svg>
