<svg width="19" height="20" viewBox="0 0 19 20" fill="none" xmlns="http://www.w3.org/2000/svg">
<path fill-rule="evenodd" clip-rule="evenodd" d="M10.5 4.45831C10.5 3.90603 10.0523 3.45831 9.50004 3.45831C8.94776 3.45831 8.50004 3.90603 8.50004 4.45831V8.99998H3.95837C3.40609 8.99998 2.95837 9.4477 2.95837 9.99998C2.95837 10.5523 3.40609 11 3.95837 11H8.50004V15.5416C8.50004 16.0939 8.94776 16.5416 9.50004 16.5416C10.0523 16.5416 10.5 16.0939 10.5 15.5416V11H15.0417C15.594 11 16.0417 10.5523 16.0417 9.99998C16.0417 9.4477 15.594 8.99998 15.0417 8.99998H10.5V4.45831Z" fill="white"/>
</svg>
